<?xml version="1.0" encoding="UTF-8"?>
<svg version="1.1" xmlns="http://www.w3.org/2000/svg" width="214" height="214">
<path d="M0 0 C3.03126322 0.60027071 5.02015385 1.52129801 7.49609375 3.35546875 C8.13740234 3.81244141 8.77871094 4.26941406 9.43945312 4.74023438 C10.77452379 5.7072797 12.10268426 6.68393545 13.42382812 7.66992188 C17.13330047 10.44863747 17.13330047 10.44863747 21.546875 10.58984375 C24.67243261 8.56420371 27.78064392 6.53819721 30.8125 4.375 C31.40998047 3.95476563 32.00746094 3.53453125 32.62304688 3.1015625 C34.08520565 2.07220272 35.54304899 1.0367177 37 0 C40.42366767 1.41422391 41.9762231 2.96039705 44.015625 6.02734375 C44.54414063 6.81947266 45.07265625 7.61160156 45.6171875 8.42773438 C46.15601563 9.25595703 46.69484375 10.08417969 47.25 10.9375 C47.80429688 11.76185547 48.35859375 12.58621094 48.9296875 13.43554688 C53 19.60618073 53 19.60618073 53 23 C55.64 23 58.28 23 61 23 C61.99593066 39.7298284 62.08624954 56.41661851 61.80392456 73.16821289 C61.76800563 75.34587148 61.73701152 77.52361693 61.71096802 79.70141602 C61.67154108 82.80013169 61.6121519 85.89782727 61.546875 88.99609375 C61.53251656 90.39921059 61.53251656 90.39921059 61.51786804 91.83067322 C61.38998847 96.67908286 61.16808525 100.07418007 58 104 C54.77841364 106.33287288 51.89042645 106.17683757 48 106 C48.32452148 106.54277588 48.64904297 107.08555176 48.98339844 107.64477539 C50.20816305 110.4822644 50.25862535 112.5974973 50.265625 115.68359375 C50.26949219 117.32231445 50.26949219 117.32231445 50.2734375 118.99414062 C50.26570313 120.13044922 50.25796875 121.26675781 50.25 122.4375 C50.26160156 124.13616211 50.26160156 124.13616211 50.2734375 125.86914062 C50.27085937 126.96291016 50.26828125 128.05667969 50.265625 129.18359375 C50.26336914 130.17931396 50.26111328 131.17503418 50.25878906 132.20092773 C49.9837026 135.17627327 49.34231075 137.33696192 48 140 C45.49634875 141.25182563 43.75719083 141.14728136 40.95532227 141.17700195 C39.37842369 141.19625481 39.37842369 141.19625481 37.76966858 141.21589661 C36.63009201 141.22328354 35.49051544 141.23067047 34.31640625 141.23828125 C32.56673805 141.25038887 32.56673805 141.25038887 30.78172302 141.26274109 C28.31112153 141.2765881 25.84050085 141.28730748 23.36987305 141.29516602 C19.58150344 141.31241348 15.79399846 141.35629953 12.00585938 141.40039062 C9.60938144 141.41051409 7.21289606 141.41903127 4.81640625 141.42578125 C3.11007774 141.45204338 3.11007774 141.45204338 1.36927795 141.47883606 C-0.21234886 141.47444771 -0.21234886 141.47444771 -1.82592773 141.4699707 C-2.7547728 141.47583694 -3.68361786 141.48170319 -4.64060974 141.48774719 C-7 141 -7 141 -8.80110168 139.15766907 C-10.44783749 136.19402247 -10.35583109 133.93244171 -10.328125 130.5546875 C-10.32296875 129.31332031 -10.3178125 128.07195312 -10.3125 126.79296875 C-10.291875 125.50003906 -10.27125 124.20710938 -10.25 122.875 C-10.24226563 120.92400391 -10.24226563 120.92400391 -10.234375 118.93359375 C-10.15424934 109.30849868 -10.15424934 109.30849868 -9 107 C-10.2375 106.773125 -11.475 106.54625 -12.75 106.3125 C-15.8243359 105.74887175 -16.89191273 105.11277139 -19.09570312 102.81347656 C-21.28724958 99.57560716 -21.53101971 97.92783849 -21.609375 94.05859375 C-21.6417627 92.85533447 -21.67415039 91.6520752 -21.70751953 90.41235352 C-21.72153809 89.10065186 -21.73555664 87.7889502 -21.75 86.4375 C-21.77734972 85.0558853 -21.80586325 83.67429323 -21.83544922 82.29272461 C-21.92663555 77.52868954 -21.96580701 72.76473798 -22 68 C-22.00753296 67.06289185 -22.01506592 66.12578369 -22.02282715 65.16027832 C-22.07771241 58.12770543 -22.10925089 51.09526437 -22.125 44.0625 C-22.12786011 43.0706369 -22.13072021 42.0787738 -22.13366699 41.05685425 C-22.1393964 38.23708113 -22.13756943 35.41742904 -22.1328125 32.59765625 C-22.13477631 31.74184967 -22.13674011 30.88604309 -22.13876343 30.00430298 C-22.11538048 24.11538048 -22.11538048 24.11538048 -21 23 C-18.32941149 22.85884839 -15.67567762 22.95752893 -13 23 C-12.83673218 21.89942261 -12.83673218 21.89942261 -12.67016602 20.77661133 C-11.95984978 17.83365083 -10.97692829 16.06097929 -9.27734375 13.57421875 C-8.47006836 12.38022461 -8.47006836 12.38022461 -7.64648438 11.16210938 C-7.08251953 10.34548828 -6.51855469 9.52886719 -5.9375 8.6875 C-5.36966797 7.85154297 -4.80183594 7.01558594 -4.21679688 6.15429688 C-2.81837969 4.09780101 -1.41266246 2.04672458 0 0 Z M3 14 C1.63543191 15.75387059 1.63543191 15.75387059 0.375 17.9375 C-0.07101563 18.66839844 -0.51703125 19.39929688 -0.9765625 20.15234375 C-2.08075723 21.79376637 -2.08075723 21.79376637 -2 23 C4.6 23.33 11.2 23.66 18 24 C13.63490128 19.58621411 13.63490128 19.58621411 8.8125 16.1875 C8.13832031 15.76855469 7.46414062 15.34960938 6.76953125 14.91796875 C5.03635585 13.84650375 5.03635585 13.84650375 3 14 Z M29.4375 17.375 C28.44621094 18.00148438 27.45492187 18.62796875 26.43359375 19.2734375 C23.91845222 20.77083742 23.91845222 20.77083742 23 23 C27.46204176 23.9154645 31.34545385 23.97847873 35.875 23.5625 C37.02742188 23.46066406 38.17984375 23.35882813 39.3671875 23.25390625 C40.23601562 23.17011719 41.10484375 23.08632813 42 23 C39.525 18.545 39.525 18.545 37 14 C33.89772648 14 32.02057057 15.72479846 29.4375 17.375 Z " fill="#6E65C5" transform="translate(90,30)"/>
<path d="M0 0 C3.03126322 0.60027071 5.02015385 1.52129801 7.49609375 3.35546875 C8.13740234 3.81244141 8.77871094 4.26941406 9.43945312 4.74023438 C10.77452379 5.7072797 12.10268426 6.68393545 13.42382812 7.66992188 C17.13330047 10.44863747 17.13330047 10.44863747 21.546875 10.58984375 C24.67243261 8.56420371 27.78064392 6.53819721 30.8125 4.375 C31.40998047 3.95476563 32.00746094 3.53453125 32.62304688 3.1015625 C34.08520565 2.07220272 35.54304899 1.0367177 37 0 C42.16630117 2.15547203 44.29857248 6.23089633 47.3125 10.75 C47.87517578 11.54921875 48.43785156 12.3484375 49.01757812 13.171875 C53.03432254 19.15028529 53.03432254 19.15028529 52.85546875 23.578125 C52.43201172 24.77695312 52.43201172 24.77695312 52 26 C51.34 25.67 50.68 25.34 50 25 C50 24.34 50 23.68 50 23 C49.34 23 48.68 23 48 23 C48 22.01 48 21.02 48 20 C47.01 19.67 46.02 19.34 45 19 C45.33 17.68 45.66 16.36 46 15 C45.401875 15.185625 44.80375 15.37125 44.1875 15.5625 C42 16 42 16 39 15 C38.67 15.66 38.34 16.32 38 17 C37.505 15.515 37.505 15.515 37 14 C35.39528272 14.95741106 33.79124671 15.91596405 32.1875 16.875 C31.29417969 17.40867187 30.40085938 17.94234375 29.48046875 18.4921875 C27.62705276 19.61883092 25.80470083 20.79686611 24 22 C28.24551856 23.09587955 31.9592839 22.92865836 36.3125 22.5625 C37.56675781 22.46066406 38.82101563 22.35882813 40.11328125 22.25390625 C41.06589844 22.17011719 42.01851562 22.08632813 43 22 C43.495 23.485 43.495 23.485 44 25 C32.81494839 25.83963615 21.71400269 26.1286409 10.5 26.0625 C8.98307443 26.05746416 7.4661472 26.05290501 5.94921875 26.04882812 C2.2994436 26.03801236 -1.35026679 26.02086846 -5 26 C-4.7834375 25.44570313 -4.566875 24.89140625 -4.34375 24.3203125 C-4.0653125 23.59585938 -3.786875 22.87140625 -3.5 22.125 C-3.2215625 21.40570313 -2.943125 20.68640625 -2.65625 19.9453125 C-1.89344982 18.02632539 -1.89344982 18.02632539 -2 16 C-3.1446875 16.2475 -3.1446875 16.2475 -4.3125 16.5 C-7 17 -7 17 -10 17 C-8.51364884 12.78345644 -6.38750841 9.37521395 -3.875 5.6875 C-3.15054688 4.61886719 -2.42609375 3.55023438 -1.6796875 2.44921875 C-0.84824219 1.23685547 -0.84824219 1.23685547 0 0 Z M3 14 C1.63543191 15.75387059 1.63543191 15.75387059 0.375 17.9375 C-0.07101563 18.66839844 -0.51703125 19.39929688 -0.9765625 20.15234375 C-2.08075723 21.79376637 -2.08075723 21.79376637 -2 23 C4.6 23.33 11.2 23.66 18 24 C13.63490128 19.58621411 13.63490128 19.58621411 8.8125 16.1875 C8.13832031 15.76855469 7.46414062 15.34960938 6.76953125 14.91796875 C5.03635585 13.84650375 5.03635585 13.84650375 3 14 Z " fill="#746AC8" transform="translate(90,30)"/>
<path d="M0 0 C0 2.97 0 5.94 0 9 C-1.98 9.99 -3.96 10.98 -6 12 C-6.04125 13.27875 -6.0825 14.5575 -6.125 15.875 C-6.15980469 16.95394531 -6.15980469 16.95394531 -6.1953125 18.0546875 C-6.18331689 20.23863645 -6.18331689 20.23863645 -4 22 C-2.68 22.33 -1.36 22.66 0 23 C0 25.97 0 28.94 0 32 C-4.6073073 32.31774533 -7.1253016 32.42909733 -11.3125 30.375 C-15.06113678 27.06225122 -16.69359363 24.47016492 -17.31640625 19.44921875 C-17.58067706 13.28574144 -17.08947119 7.85268727 -13 3 C-8.87484289 -0.11755089 -5.08784067 -1.90794025 0 0 Z " fill="#727CDC" transform="translate(58,73)"/>
<path d="M0 0 C5.60431829 0.11208637 8.61588515 1.66173835 12.5546875 5.40625 C16.37694236 9.62106077 16.38400091 14.10269918 16.24609375 19.5703125 C15.73769791 24.5897127 13.70820211 27.27570238 10.25 30.8125 C6.66219298 33.22737011 4.2887599 33.83181334 0 34 C-1 33 -1 33 -1.09765625 30.93359375 C-1.08605469 30.10988281 -1.07445312 29.28617188 -1.0625 28.4375 C-1.05347656 27.61121094 -1.04445312 26.78492187 -1.03515625 25.93359375 C-1.02355469 25.29550781 -1.01195312 24.65742187 -1 24 C-0.195625 23.71125 0.60875 23.4225 1.4375 23.125 C4.1326468 22.26737432 4.1326468 22.26737432 5 20 C5.24787017 15.85496339 5.24787017 15.85496339 4 12 C2.35636866 11.27840576 0.68949614 10.60648579 -1 10 C-1.02689216 8.52093108 -1.04634621 7.04172517 -1.0625 5.5625 C-1.07410156 4.73878906 -1.08570313 3.91507812 -1.09765625 3.06640625 C-1 1 -1 1 0 0 Z " fill="#877ECC" transform="translate(163,72)"/>
<path d="M0 0 C2.975764 0.60620447 5.08863287 1.52060766 7.6015625 3.21484375 C8.25640625 3.65376953 8.91125 4.09269531 9.5859375 4.54492188 C10.25882813 5.00447266 10.93171875 5.46402344 11.625 5.9375 C12.6459375 6.62102539 12.6459375 6.62102539 13.6875 7.31835938 C16.33095591 9.1024309 18.7386906 10.7386906 21 13 C19.35 13 17.7 13 16 13 C16 12.34 16 11.68 16 11 C15.38125 10.87625 14.7625 10.7525 14.125 10.625 C12 10 12 10 10 8 C9.01 9.32 8.02 10.64 7 12 C7.8353125 12.37125 7.8353125 12.37125 8.6875 12.75 C11.44160479 14.23870529 13.69174514 15.88409972 16 18 C16 18.99 16 19.98 16 21 C11.88213914 19.54663734 8.62014091 17.41342727 5 15 C4.34 15 3.68 15 3 15 C1.68 17.31 0.36 19.62 -1 22 C-1.5534764 19.92446352 -2 18.15634036 -2 16 C-3.1446875 16.2475 -3.1446875 16.2475 -4.3125 16.5 C-7 17 -7 17 -10 17 C-8.51364884 12.78345644 -6.38750841 9.37521395 -3.875 5.6875 C-3.15054688 4.61886719 -2.42609375 3.55023438 -1.6796875 2.44921875 C-0.84824219 1.23685547 -0.84824219 1.23685547 0 0 Z M16 17 C18 18 18 18 18 18 Z " fill="#6B75D8" transform="translate(90,30)"/>
<path d="M0 0 C0.66 0 1.32 0 2 0 C2.04898438 0.62648438 2.09796875 1.25296875 2.1484375 1.8984375 C2.22320312 2.71570313 2.29796875 3.53296875 2.375 4.375 C2.44460937 5.18710938 2.51421875 5.99921875 2.5859375 6.8359375 C2.82892588 9.20334191 2.82892588 9.20334191 5 11 C6.32 11.33 7.64 11.66 9 12 C9 14.97 9 17.94 9 21 C2.90932974 21.42004622 -0.10816881 21.0566405 -5 17 C-6.35439668 14.29120665 -6.06501451 11.99066732 -6 9 C-5.34 9 -4.68 9 -4 9 C-2.47700477 6.06279492 -1.19899698 3.0831351 0 0 Z " fill="#6E6CC8" transform="translate(49,84)"/>
<path d="M0 0 C0.433125 0.474375 0.86625 0.94875 1.3125 1.4375 C3.02309613 3.23686957 3.02309613 3.23686957 6 4 C6 4.66 6 5.32 6 6 C7.65 6 9.3 6 11 6 C11.33 5.01 11.66 4.02 12 3 C15 1 15 1 19 1 C19 1.66 19 2.32 19 3 C19.66 3 20.32 3 21 3 C21 4.65 21 6.3 21 8 C20.01 8.33 19.02 8.66 18 9 C17.67 9.66 17.34 10.32 17 11 C16.34 11 15.68 11 15 11 C15 11.66 15 12.32 15 13 C13.68 13 12.36 13 11 13 C11 13.99 11 14.98 11 16 C8.5625 15.1875 8.5625 15.1875 6 14 C5.67 13.01 5.34 12.02 5 11 C3.14188287 9.33410763 3.14188287 9.33410763 0.9375 7.8125 C0.20402344 7.28269531 -0.52945313 6.75289062 -1.28515625 6.20703125 C-1.85105469 5.80871094 -2.41695313 5.41039062 -3 5 C-1.125 1.125 -1.125 1.125 0 0 Z " fill="#736BC9" transform="translate(100,37)"/>
<path d="M0 0 C0.33 0 0.66 0 1 0 C2.03077422 11.62484255 2.03077422 11.62484255 -1.4375 16.125 C-4.96163654 19.58168895 -9.12855148 20.75386365 -14 21 C-15 20 -15 20 -15.09765625 17.93359375 C-15.08605469 17.10988281 -15.07445312 16.28617188 -15.0625 15.4375 C-15.05347656 14.61121094 -15.04445312 13.78492187 -15.03515625 12.93359375 C-15.02355469 12.29550781 -15.01195312 11.65742187 -15 11 C-14.236875 11.061875 -13.47375 11.12375 -12.6875 11.1875 C-9.95474688 11.25898085 -9.95474688 11.25898085 -8.1875 9.5 C-7.795625 9.005 -7.40375 8.51 -7 8 C-6.34 8.33 -5.68 8.66 -5 9 C-5 8.01 -5 7.02 -5 6 C-4.360625 5.7525 -3.72125 5.505 -3.0625 5.25 C-0.81258459 4.18437567 -0.81258459 4.18437567 -0.25 1.875 C-0.1675 1.25625 -0.085 0.6375 0 0 Z " fill="#7156B2" transform="translate(177,85)"/>
<path d="M0 0 C22.77 0 45.54 0 69 0 C69 0.33 69 0.66 69 1 C67.02 1 65.04 1 63 1 C62.67 1.66 62.34 2.32 62 3 C61.34 2.67 60.68 2.34 60 2 C58.36582405 1.9097165 56.72797163 1.88244342 55.09130859 1.88647461 C54.07040131 1.88655014 53.04949402 1.88662567 51.99765015 1.88670349 C50.89240997 1.89186478 49.7871698 1.89702606 48.6484375 1.90234375 C46.95468491 1.90446617 46.95468491 1.90446617 45.22671509 1.90663147 C41.60945012 1.91224256 37.99224636 1.92479697 34.375 1.9375 C31.92708423 1.94251357 29.47916748 1.94707672 27.03125 1.95117188 C21.02081234 1.9622156 15.01041054 1.97896456 9 2 C8.37867709 7.05930598 7.87444537 12.02350224 7.90234375 17.12890625 C7.90556641 18.18271484 7.90878906 19.23652344 7.91210938 20.32226562 C7.92048828 21.39154297 7.92886719 22.46082031 7.9375 23.5625 C7.94201172 24.66658203 7.94652344 25.77066406 7.95117188 26.90820312 C7.9628486 29.605527 7.97922475 32.30273347 8 35 C6.52050781 33.89672852 6.52050781 33.89672852 5 32 C4.64355469 29.12084961 4.64355469 29.12084961 4.671875 25.65234375 C4.67703125 24.40775391 4.6821875 23.16316406 4.6875 21.88085938 C4.708125 20.57955078 4.72875 19.27824219 4.75 17.9375 C4.75515625 16.63232422 4.7603125 15.32714844 4.765625 13.98242188 C4.84586683 4.30826634 4.84586683 4.30826634 6 2 C3.03 1.505 3.03 1.505 0 1 C0 0.67 0 0.34 0 0 Z " fill="#9083D3" transform="translate(75,135)"/>
<path d="M0 0 C0.33 0 0.66 0 1 0 C1.66 2.97 2.32 5.94 3 9 C-0.96 8.67 -4.92 8.34 -9 8 C-9 20.54 -9 33.08 -9 46 C-9.66 45.67 -10.32 45.34 -11 45 C-11.02464849 39.60653012 -11.04283531 34.21309275 -11.05493164 28.81958008 C-11.05997231 26.98331125 -11.06680477 25.14704646 -11.07543945 23.31079102 C-11.08751672 20.67723599 -11.09323081 18.04373384 -11.09765625 15.41015625 C-11.10281754 14.58411392 -11.10797882 13.75807159 -11.11329651 12.90699768 C-11.11349205 10.93763632 -11.06204152 8.96838386 -11 7 C-10 6 -10 6 -8.15234375 5.90234375 C-6.1015625 5.93489583 -4.05078125 5.96744792 -2 6 C-1.855625 5.195625 -1.71125 4.39125 -1.5625 3.5625 C-1 1 -1 1 0 0 Z " fill="#B0B9E1" transform="translate(79,47)"/>
<path d="M0 0 C0.93972656 0.33773437 1.87945312 0.67546875 2.84765625 1.0234375 C7.73337831 2.41935809 12.42125333 1.98614087 17.4375 1.625 C18.35982422 1.56828125 19.28214844 1.5115625 20.23242188 1.453125 C22.48919779 1.31280733 24.74465997 1.16152895 27 1 C27.495 2.485 27.495 2.485 28 4 C16.81494839 4.83963615 5.71400269 5.1286409 -5.5 5.0625 C-7.01692557 5.05746416 -8.5338528 5.05290501 -10.05078125 5.04882812 C-13.7005564 5.03801236 -17.35026679 5.02086846 -21 5 C-20.34 3.68 -19.68 2.36 -19 1 C-12.4 1.33 -5.8 1.66 1 2 C0.67 1.34 0.34 0.68 0 0 Z " fill="#989DE3" transform="translate(106,51)"/>
<path d="M0 0 C1.32 0.33 2.64 0.66 4 1 C3.67854004 1.67208496 3.35708008 2.34416992 3.02587891 3.03662109 C1.78859025 6.61068339 1.67663305 9.6322907 1.5859375 13.4140625 C1.56648071 14.13344498 1.54702393 14.85282745 1.52697754 15.5940094 C1.46656744 17.93755405 1.42020468 20.28111651 1.375 22.625 C1.3377784 24.24650933 1.30017767 25.86800999 1.26220703 27.48950195 C1.04173464 37.38767842 0.90442864 47.28686483 0.875 57.1875 C0.87032715 58.25887207 0.8656543 59.33024414 0.86083984 60.43408203 C0.87320924 66.37044121 1.22971606 72.11282991 2 78 C0.53417969 76.94482422 0.53417969 76.94482422 -1 75 C-1.44824219 71.80126953 -1.44824219 71.80126953 -1.546875 67.8828125 C-1.56719788 67.18864227 -1.58752075 66.49447205 -1.60845947 65.77926636 C-1.64863141 64.31183684 -1.68180997 62.84420154 -1.70849609 61.37646484 C-1.74973047 59.13962098 -1.81239605 56.90418945 -1.87890625 54.66796875 C-2.02446498 48.95955265 -2.12916608 43.61300887 -1 38 C-0.80139943 35.06866884 -0.74453877 32.13624008 -0.68359375 29.19921875 C-0.66281265 28.36284378 -0.64203156 27.52646881 -0.62062073 26.66474915 C-0.55548966 24.00574579 -0.4964105 21.34664772 -0.4375 18.6875 C-0.39428008 16.87954769 -0.3506647 15.07160478 -0.30664062 13.26367188 C-0.19984584 8.84254378 -0.09847675 4.42132088 0 0 Z " fill="#8385CC" transform="translate(70,55)"/>
<path d="M0 0 C1.98 0 3.96 0 6 0 C6 2.97 6 5.94 6 9 C-0.26079448 9.43177893 -3.09075703 8.92739438 -8 5 C-5.35261084 3.5393715 -4.10551666 3 -1 3 C-0.67 2.01 -0.34 1.02 0 0 Z " fill="#907DBE" transform="translate(52,96)"/>
<path d="M0 0 C0.33 0 0.66 0 1 0 C1.10140493 6.4777286 1.17146717 12.95525261 1.21972656 19.43359375 C1.23984419 21.6374476 1.26714172 23.84124807 1.30175781 26.04492188 C1.35026833 29.21237356 1.37296736 32.37911968 1.390625 35.546875 C1.41127014 36.53242371 1.43191528 37.51797241 1.45318604 38.53338623 C1.45541986 45.34043484 1.45541986 45.34043484 -0.82128906 48.63769531 C-3.67205903 50.42022517 -5.70217159 50.29980258 -9 50 C-8 48 -8 48 -6 47 C-5.34786708 44.97536745 -5.34786708 44.97536745 -5 43 C-3.35 43.33 -1.7 43.66 0 44 C0 29.48 0 14.96 0 0 Z " fill="#7459A6" transform="translate(149,85)"/>
<path d="M0 0 C4.20626034 1.50223584 5.73900021 4.28550034 8 8 C7.67 8.66 7.34 9.32 7 10 C6.236875 9.62875 5.47375 9.2575 4.6875 8.875 C3.800625 8.58625 2.91375 8.2975 2 8 C1.01 8.66 0.02 9.32 -1 10 C-1.99 10 -2.98 10 -4 10 C-4 9.01 -4 8.02 -4 7 C-5.98 7.33 -7.96 7.66 -10 8 C-6.97727468 4.74475735 -3.74281699 2.38179263 0 0 Z " fill="#7875CE" transform="translate(127,30)"/>
<path d="M0 0 C0.66 0.33 1.32 0.66 2 1 C1.83628906 1.89847656 1.67257813 2.79695312 1.50390625 3.72265625 C0.71151239 9.26941327 0.8943717 14.84740921 0.9375 20.4375 C0.94201172 21.55060547 0.94652344 22.66371094 0.95117188 23.81054688 C0.96288807 26.54042101 0.97929301 29.27018174 1 32 C-0.48168945 30.90112305 -0.48168945 30.90112305 -2 29 C-2.34057617 26.08911133 -2.34057617 26.08911133 -2.29296875 22.58203125 C-2.28330078 21.32841797 -2.27363281 20.07480469 -2.26367188 18.78320312 C-2.23853516 17.47287109 -2.21339844 16.16253906 -2.1875 14.8125 C-2.17244967 13.47722837 -2.15876187 12.14194063 -2.14648438 10.80664062 C-2.11107694 7.53735424 -2.0616889 4.26887907 -2 1 C-1.34 0.67 -0.68 0.34 0 0 Z " fill="#8E93DA" transform="translate(82,138)"/>
<path d="M0 0 C5.11628331 2.0955583 7.6459098 6.13705243 10 11 C9.875 14.5625 9.875 14.5625 9 17 C8.34 16.67 7.68 16.34 7 16 C7 15.34 7 14.68 7 14 C6.34 14 5.68 14 5 14 C5 13.01 5 12.02 5 11 C4.01 10.67 3.02 10.34 2 10 C2.33 8.68 2.66 7.36 3 6 C1.68 6.33 0.36 6.66 -1 7 C-1.66 6.01 -2.32 5.02 -3 4 C-2.01 3.34 -1.02 2.68 0 2 C0 1.34 0 0.68 0 0 Z " fill="#7C62AF" transform="translate(133,39)"/>
<path d="M0 0 C0.99 0.33 1.98 0.66 3 1 C2.91896914 3.75504918 2.40884366 5.51587351 0.62109375 7.6328125 C-3.36015065 11.32013953 -6.40407029 12.88808141 -12 13 C-13 12 -13 12 -13.09765625 9.93359375 C-13.08605469 9.10988281 -13.07445312 8.28617188 -13.0625 7.4375 C-13.05347656 6.61121094 -13.04445312 5.78492187 -13.03515625 4.93359375 C-13.02355469 4.29550781 -13.01195312 3.65742187 -13 3 C-12.01 3.33 -11.02 3.66 -10 4 C-10.33 5.65 -10.66 7.3 -11 9 C-7.0507432 8.44894091 -3.65079826 7.61064629 0 6 C0 4.02 0 2.04 0 0 Z " fill="#7C6DB7" transform="translate(175,93)"/>
<path d="M0 0 C0.928125 0.165 1.85625 0.33 2.8125 0.5 C5.95621353 1.07748388 5.95621353 1.07748388 9 1 C8.67 2.32 8.34 3.64 8 5 C8.66 5.33 9.32 5.66 10 6 C10.625 8.0625 10.625 8.0625 11 10 C9.02 10.99 9.02 10.99 7 12 C0.29612756 4.88610478 0.29612756 4.88610478 0 0 Z " fill="#7B65B6" transform="translate(128,44)"/>
<path d="M0 0 C0.99 0.33 1.98 0.66 3 1 C3 9.25 3 17.5 3 26 C2.34 26.33 1.68 26.66 1 27 C-0.71153653 22.67081936 -0.89308783 20.46543914 0 16 C0.068089 13.21924515 0.09478336 10.46635261 0.0625 7.6875 C0.05798828 6.94693359 0.05347656 6.20636719 0.04882812 5.44335938 C0.03712175 3.62887101 0.01918898 1.81442466 0 0 Z " fill="#9989C6" transform="translate(137,139)"/>
<path d="M0 0 C2.61832954 1.72014997 4.97585899 3.60253039 7 6 C7 6.99 7 7.98 7 9 C2.88213914 7.54663734 -0.37985909 5.41342727 -4 3 C-4.66 3 -5.32 3 -6 3 C-7.32 5.31 -8.64 7.62 -10 10 C-10.6875 8.3125 -10.6875 8.3125 -11 6 C-9.75 3.3125 -9.75 3.3125 -8 1 C-4.82132212 -0.05955929 -3.29749893 -0.5246021 0 0 Z M7 5 C9 6 9 6 9 6 Z " fill="#817CC5" transform="translate(99,42)"/>
<path d="M0 0 C0.99 0.33 1.98 0.66 3 1 C4.00496852 4.01490557 4.10335303 6.04181692 4.0625 9.1875 C4.05347656 10.08855469 4.04445312 10.98960938 4.03515625 11.91796875 C4.02355469 12.60503906 4.01195312 13.29210937 4 14 C3.67 14 3.34 14 3 14 C2.67 12.35 2.34 10.7 2 9 C1.21625 9.495 0.4325 9.99 -0.375 10.5 C-3 12 -3 12 -5 12 C-5.1875 9.625 -5.1875 9.625 -5 7 C-4.01 6.34 -3.02 5.68 -2 5 C-0.79549696 2.44816596 -0.79549696 2.44816596 0 0 Z " fill="#8470BE" transform="translate(175,80)"/>
<path d="M0 0 C3.99455527 0.61454696 6.74466336 2.70646737 10 5 C9.01 5.495 9.01 5.495 8 6 C8 6.66 8 7.32 8 8 C6.68 8 5.36 8 4 8 C4 8.99 4 9.98 4 11 C3.34 11 2.68 11 2 11 C1.67 8.69 1.34 6.38 1 4 C0.01 4.33 -0.98 4.66 -2 5 C-1.34 3.35 -0.68 1.7 0 0 Z " fill="#7988E2" transform="translate(90,30)"/>
<path d="M0 0 C1.51400391 0.01740234 1.51400391 0.01740234 3.05859375 0.03515625 C4.07050781 0.04417969 5.08242187 0.05320313 6.125 0.0625 C7.29869141 0.07990234 7.29869141 0.07990234 8.49609375 0.09765625 C4.74609375 3.97265625 4.74609375 3.97265625 2.49609375 5.09765625 C2.16609375 6.08765625 1.83609375 7.07765625 1.49609375 8.09765625 C0.83609375 7.76765625 0.17609375 7.43765625 -0.50390625 7.09765625 C-2.62074466 7.98929202 -2.62074466 7.98929202 -4.50390625 9.09765625 C-3.50825862 0.13682756 -3.50825862 0.13682756 0 0 Z " fill="#6A77E0" transform="translate(86.50390625,135.90234375)"/>
<path d="M0 0 C0.33 0 0.66 0 1 0 C1 2.97 1 5.94 1 9 C2.32 8.34 3.64 7.68 5 7 C5 10.52032428 4.29648649 11.4385343 2 14 C1.34 14 0.68 14 0 14 C-0.33 15.32 -0.66 16.64 -1 18 C-2.27959591 15.44080818 -2.16816536 13.54515972 -2.1875 10.6875 C-2.20167969 9.74261719 -2.21585938 8.79773438 -2.23046875 7.82421875 C-1.98824335 4.85593118 -1.24026607 2.69132835 0 0 Z " fill="#8189DF" transform="translate(43,79)"/>
<path d="M0 0 C1.40958984 0.50660156 1.40958984 0.50660156 2.84765625 1.0234375 C7.73337831 2.41935809 12.42125333 1.98614087 17.4375 1.625 C18.35982422 1.56828125 19.28214844 1.5115625 20.23242188 1.453125 C22.48919779 1.31280733 24.74465997 1.16152895 27 1 C27.33 1.99 27.66 2.98 28 4 C8.6101008 5.78021407 8.6101008 5.78021407 2 3 C1.34 2.01 0.68 1.02 0 0 Z " fill="#B2B0DF" transform="translate(106,51)"/>
<path d="M0 0 C0.33 0.66 0.66 1.32 1 2 C1.66 2 2.32 2 3 2 C3 2.66 3 3.32 3 4 C4.11375 3.484375 5.2275 2.96875 6.375 2.4375 C7.57125 1.963125 8.7675 1.48875 10 1 C10.66 1.33 11.32 1.66 12 2 C11.67 3.65 11.34 5.3 11 7 C8.03 7 5.06 7 2 7 C0 3 0 3 0 0 Z " fill="#7469BC" transform="translate(71,128)"/>
<path d="M0 0 C2.31 0 4.62 0 7 0 C7.625 1.875 7.625 1.875 8 4 C6 6 6 6 2.375 6.125 C1.26125 6.08375 0.1475 6.0425 -1 6 C-0.67 4.02 -0.34 2.04 0 0 Z " fill="#6975DE" transform="translate(164,75)"/>
<path d="M0 0 C1.66611905 -0.042721 3.33382885 -0.04063832 5 0 C6 1 6 1 6.0625 4.0625 C6.041875 5.031875 6.02125 6.00125 6 7 C3.69 7 1.38 7 -1 7 C-0.67 4.69 -0.34 2.38 0 0 Z " fill="#6B6ED5" transform="translate(51,75)"/>
<path d="M0 0 C0 2.97 0 5.94 0 9 C-0.33 9 -0.66 9 -1 9 C-1.33 7.02 -1.66 5.04 -2 3 C-3.65 2.67 -5.3 2.34 -7 2 C-7 2.99 -7 3.98 -7 5 C-7.66 5 -8.32 5 -9 5 C-9 4.34 -9 3.68 -9 3 C-11.475 4.485 -11.475 4.485 -14 6 C-12.93946379 2.58271664 -11.91017003 1.95084775 -8.6875 0.1875 C-5.07005292 -0.97744059 -3.52875614 -1.17625205 0 0 Z " fill="#9DA0E0" transform="translate(58,73)"/>
<path d="M0 0 C6.34257749 0.46982055 6.34257749 0.46982055 8.9375 2.5625 C9.288125 3.036875 9.63875 3.51125 10 4 C9.01 4.495 9.01 4.495 8 5 C8 4.34 8 3.68 8 3 C5.69 3 3.38 3 1 3 C0.67 4.98 0.34 6.96 0 9 C1.65 9 3.3 9 5 9 C4.67 9.66 4.34 10.32 4 11 C2.35 10.67 0.7 10.34 -1 10 C-1.02689216 8.52093108 -1.04634621 7.04172517 -1.0625 5.5625 C-1.07410156 4.73878906 -1.08570313 3.91507812 -1.09765625 3.06640625 C-1 1 -1 1 0 0 Z " fill="#9A9FE0" transform="translate(163,72)"/>
<path d="M0 0 C2.62113708 0 4.50935112 0.31292445 7 1 C6.34 2.32 5.68 3.64 5 5 C3.68 5 2.36 5 1 5 C0.67 5.66 0.34 6.32 0 7 C-0.66 6.67 -1.32 6.34 -2 6 C-1.125 1.125 -1.125 1.125 0 0 Z " fill="#6C6CD0" transform="translate(82,45)"/>
<path d="M0 0 C1.32 0.66 2.64 1.32 4 2 C3.67 2.66 3.34 3.32 3 4 C2.01 3.67 1.02 3.34 0 3 C-0.33 3.99 -0.66 4.98 -1 6 C-3.06640625 6.73046875 -3.06640625 6.73046875 -5.5625 7.1875 C-6.38878906 7.34605469 -7.21507813 7.50460938 -8.06640625 7.66796875 C-9.02353516 7.83232422 -9.02353516 7.83232422 -10 8 C-6.97727468 4.74475735 -3.74281699 2.38179263 0 0 Z " fill="#9494D6" transform="translate(127,30)"/>
<path d="M0 0 C0.99 0.99 1.98 1.98 3 3 C1.23174858 4.14981374 -0.53969521 5.29471922 -2.3125 6.4375 C-3.29863281 7.07558594 -4.28476563 7.71367188 -5.30078125 8.37109375 C-8 10 -8 10 -11 11 C-11 10.01 -11 9.02 -11 8 C-9.68 8 -8.36 8 -7 8 C-7 7.34 -7 6.68 -7 6 C-6.34 6 -5.68 6 -5 6 C-4.67 5.01 -4.34 4.02 -4 3 C-3.01 3 -2.02 3 -1 3 C-0.67 2.01 -0.34 1.02 0 0 Z " fill="#8E85C6" transform="translate(122,42)"/>
<path d="M0 0 C0.433125 0.45375 0.86625 0.9075 1.3125 1.375 C3.10798342 3.20024334 3.10798342 3.20024334 6 5 C3.525 6.485 3.525 6.485 1 8 C-0.32 7.01 -1.64 6.02 -3 5 C-1.125 1.125 -1.125 1.125 0 0 Z " fill="#6C6ED5" transform="translate(100,37)"/>
<path d="M0 0 C0.99 0.33 1.98 0.66 3 1 C2.58578031 5.83256305 0.53586014 7.82679218 -3 11 C-4.32 10.34 -5.64 9.68 -7 9 C-2.25 6 -2.25 6 0 6 C0 4.02 0 2.04 0 0 Z " fill="#8870B0" transform="translate(175,93)"/>
<path d="M0 0 C0.33 0 0.66 0 1 0 C1 2.97 1 5.94 1 9 C0.34 9 -0.32 9 -1 9 C-1.33 10.65 -1.66 12.3 -2 14 C-2.99 13.67 -3.98 13.34 -5 13 C-3.58192622 8.52761347 -1.88695626 4.28853694 0 0 Z " fill="#7052A3" transform="translate(177,85)"/>
<path d="M0 0 C1.65 0.33 3.3 0.66 5 1 C5.33 2.32 5.66 3.64 6 5 C4.02 5.99 4.02 5.99 2 7 C0.4375 5.1875 0.4375 5.1875 -1 3 C-0.67 2.01 -0.34 1.02 0 0 Z " fill="#6F52A7" transform="translate(133,49)"/>
<path d="M0 0 C0.33 0.99 0.66 1.98 1 3 C0.01 3.33 -0.98 3.66 -2 4 C-2.33 4.66 -2.66 5.32 -3 6 C-3.66 6 -4.32 6 -5 6 C-5 6.66 -5 7.32 -5 8 C-5.99 7.67 -6.98 7.34 -8 7 C-8 6.01 -8 5.02 -8 4 C-7.34 4 -6.68 4 -6 4 C-6 3.34 -6 2.68 -6 2 C-4.02 1.34 -2.04 0.68 0 0 Z " fill="#6D62BC" transform="translate(120,42)"/>
<path d="M0 0 C2.99324263 1.0975223 3.84610901 1.67682892 5.25 4.625 C5.4975 5.40875 5.745 6.1925 6 7 C5.4225 6.835 4.845 6.67 4.25 6.5 C1.73335631 5.85537969 1.73335631 5.85537969 -2 6 C-2.33 5.34 -2.66 4.68 -3 4 C-2.01 3.34 -1.02 2.68 0 2 C0 1.34 0 0.68 0 0 Z " fill="#8072BF" transform="translate(133,39)"/>
<path d="M0 0 C0.66 1.32 1.32 2.64 2 4 C1.34 4 0.68 4 0 4 C-0.226875 4.763125 -0.45375 5.52625 -0.6875 6.3125 C-2.26731682 9.54736301 -3.83282717 10.41641358 -7 12 C-5.44298069 7.32894208 -2.91552627 3.91294315 0 0 Z " fill="#989EE1" transform="translate(87,35)"/>
<path d="M0 0 C0.66 0 1.32 0 2 0 C2 1.65 2 3.3 2 5 C-0.31 5.33 -2.62 5.66 -5 6 C-5.33 5.34 -5.66 4.68 -6 4 C-4.35 3.67 -2.7 3.34 -1 3 C-0.67 2.01 -0.34 1.02 0 0 Z " fill="#7159B6" transform="translate(52,96)"/>
<path d="M0 0 C0.33 0 0.66 0 1 0 C1.1953125 1.98567708 1.390625 3.97135417 1.5859375 5.95703125 C1.92665391 8.29988142 1.92665391 8.29988142 4 11 C3.01 11.99 2.02 12.98 1 14 C0.01 13.67 -0.98 13.34 -2 13 C-1.84660156 12.43796875 -1.69320312 11.8759375 -1.53515625 11.296875 C-0.98639581 8.94161122 -0.68502401 6.65451896 -0.4375 4.25 C-0.35371094 3.45078125 -0.26992188 2.6515625 -0.18359375 1.828125 C-0.12300781 1.22484375 -0.06242187 0.6215625 0 0 Z " fill="#8D85CF" transform="translate(50,85)"/>
<path d="M0 0 C0.33 0 0.66 0 1 0 C1 1.65 1 3.3 1 5 C-2.96 5 -6.92 5 -11 5 C-7 3 -7 3 -3.8125 2.5 C-2.4203125 2.2525 -2.4203125 2.2525 -1 2 C-0.67 1.34 -0.34 0.68 0 0 Z " fill="#7155A0" transform="translate(136,165)"/>
<path d="M0 0 C0.33 0 0.66 0 1 0 C1 2.31 1 4.62 1 7 C-2.3 7 -5.6 7 -9 7 C-9 6.67 -9 6.34 -9 6 C-6.69 6 -4.38 6 -2 6 C-1.855625 5.195625 -1.71125 4.39125 -1.5625 3.5625 C-1 1 -1 1 0 0 Z " fill="#B7BDE6" transform="translate(79,47)"/>
<path d="M0 0 C1.32 0.33 2.64 0.66 4 1 C3.5359375 1.99 3.5359375 1.99 3.0625 3 C1.75039745 6.70476015 1.39735865 10.09263991 1 14 C0.67 14 0.34 14 0 14 C0 9.38 0 4.76 0 0 Z " fill="#6B7ADD" transform="translate(70,55)"/>
<path d="M0 0 C3.96 0 7.92 0 12 0 C12.33 0.99 12.66 1.98 13 3 C8.71 2.67 4.42 2.34 0 2 C-0.33 2.66 -0.66 3.32 -1 4 C-0.67 2.68 -0.34 1.36 0 0 Z " fill="#868EDE" transform="translate(69,53)"/>
<path d="M0 0 C1.66926454 0.97473126 3.33535642 1.95489789 5 2.9375 C6.3921875 3.75541016 6.3921875 3.75541016 7.8125 4.58984375 C8.534375 5.05519531 9.25625 5.52054688 10 6 C10 6.33 10 6.66 10 7 C8.35 7 6.7 7 5 7 C5 6.34 5 5.68 5 5 C3.68 4.67 2.36 4.34 1 4 C0.67 2.68 0.34 1.36 0 0 Z " fill="#9A9AD8" transform="translate(101,36)"/>
<path d="M0 0 C2.125 0.375 2.125 0.375 4 1 C3.401875 1.5775 2.80375 2.155 2.1875 2.75 C0.2517316 4.74107607 -1.38909283 6.74472997 -3 9 C-2.25 2.25 -2.25 2.25 0 0 Z " fill="#9392D6" transform="translate(91,43)"/>
<path d="M0 0 C1.32 0.66 2.64 1.32 4 2 C2.625 4 2.625 4 1 6 C0.34 6 -0.32 6 -1 6 C-1.042721 4.33388095 -1.04063832 2.66617115 -1 1 C-0.67 0.67 -0.34 0.34 0 0 Z " fill="#705EBF" transform="translate(165,96)"/>
<path d="M0 0 C2.375 -0.1875 2.375 -0.1875 5 0 C5.66 0.99 6.32 1.98 7 3 C6.67 3.66 6.34 4.32 6 5 C3.5625 4.1875 3.5625 4.1875 1 3 C0.67 2.01 0.34 1.02 0 0 Z " fill="#8082CF" transform="translate(94,42)"/>
<path d="M0 0 C0.33 0 0.66 0 1 0 C1 2.31 1 4.62 1 7 C2.32 7.66 3.64 8.32 5 9 C3.0625 9.5625 3.0625 9.5625 1 10 C0 9 0 9 -0.09765625 6.93359375 C-0.08605469 6.10988281 -0.07445312 5.28617187 -0.0625 4.4375 C-0.05347656 3.61121094 -0.04445312 2.78492187 -0.03515625 1.93359375 C-0.02355469 1.29550781 -0.01195312 0.65742187 0 0 Z " fill="#9891C5" transform="translate(162,96)"/>
<path d="M0 0 C0.66 0.33 1.32 0.66 2 1 C1.34 2.98 0.68 4.96 0 7 C-0.99 6.67 -1.98 6.34 -3 6 C-3 3 -3 3 -1.5 1.3125 C-0.7575 0.6628125 -0.7575 0.6628125 0 0 Z " fill="#7063C5" transform="translate(172,80)"/>
<path d="M0 0 C0.66 0 1.32 0 2 0 C2 1.98 2 3.96 2 6 C0.68 6 -0.64 6 -2 6 C-2 5.01 -2 4.02 -2 3 C-1.34 3 -0.68 3 0 3 C0 2.01 0 1.02 0 0 Z " fill="#6D68C0" transform="translate(55,76)"/>
<path d="M0 0 C0.66 0 1.32 0 2 0 C2 2.64 2 5.28 2 8 C1.01 8 0.02 8 -1 8 C-0.67 5.36 -0.34 2.72 0 0 Z " fill="#6B5596" transform="translate(55,97)"/>
<path d="M0 0 C0.99 0 1.98 0 3 0 C3.625 1.875 3.625 1.875 4 4 C3.34 4.66 2.68 5.32 2 6 C1.01 5.67 0.02 5.34 -1 5 C-0.67 3.35 -0.34 1.7 0 0 Z " fill="#6D6BD1" transform="translate(168,75)"/>
<path d="M0 0 C0.66 0.33 1.32 0.66 2 1 C1.67 2.98 1.34 4.96 1 7 C0.34 6.67 -0.32 6.34 -1 6 C-1 5.34 -1 4.68 -1 4 C-1.66 4 -2.32 4 -3 4 C-3 3.34 -3 2.68 -3 2 C-2.01 2 -1.02 2 0 2 C0 1.34 0 0.68 0 0 Z " fill="#937EC0" transform="translate(141,49)"/>
<path d="M0 0 C1.32 0.33 2.64 0.66 4 1 C4.33 2.32 4.66 3.64 5 5 C2.525 4.01 2.525 4.01 0 3 C0 2.01 0 1.02 0 0 Z " fill="#6E61B1" transform="translate(106,48)"/>
<path d="M0 0 C1.32 0.33 2.64 0.66 4 1 C3.67 1.99 3.34 2.98 3 4 C1.35 4.33 -0.3 4.66 -2 5 C-1.34 3.35 -0.68 1.7 0 0 Z " fill="#9DA8E5" transform="translate(90,30)"/>
</svg>
